<?xml version="1.0" encoding="UTF-8"?><svg xmlns="http://www.w3.org/2000/svg" xmlns:xlink="http://www.w3.org/1999/xlink" viewBox="0 0 3710 3710"><defs><style>.cls-1{fill:url(#linear-gradient-2);}.cls-2{fill:url(#linear-gradient-51);}.cls-3,.cls-4,.cls-5,.cls-6,.cls-7,.cls-8{fill:#fff;}.cls-9{fill:url(#linear-gradient-17);}.cls-10{fill:url(#linear-gradient-43);}.cls-11{fill:url(#linear-gradient-15);}.cls-12{fill:url(#linear-gradient-58);}.cls-4{opacity:.39;}.cls-13{fill:url(#linear-gradient-18);}.cls-14{fill:url(#linear-gradient-56);}.cls-15{fill:url(#linear-gradient-40);}.cls-16{fill:url(#linear-gradient-52);}.cls-17{fill:url(#linear-gradient-28);}.cls-18{fill:url(#linear-gradient-14);}.cls-19{fill:url(#linear-gradient-36);}.cls-20{fill:url(#linear-gradient-20);}.cls-21{fill:url(#linear-gradient-6);}.cls-22{fill:url(#linear-gradient-53);}.cls-23{fill:url(#linear-gradient-60);}.cls-24{fill:url(#linear-gradient-35);}.cls-25{fill:url(#linear-gradient-48);}.cls-26{fill:url(#linear-gradient-32);}.cls-27{fill:url(#linear-gradient-11);}.cls-28{fill:url(#linear-gradient-50);}.cls-5,.cls-29{opacity:.8;}.cls-6{opacity:.42;}.cls-30{fill:url(#linear-gradient-39);}.cls-31{fill:url(#linear-gradient-10);}.cls-7{opacity:.55;}.cls-32{fill:#91b3fa;}.cls-33{fill:url(#linear-gradient-59);}.cls-34{fill:url(#linear-gradient-49);}.cls-35{fill:url(#linear-gradient-37);}.cls-36{fill:url(#linear-gradient-16);}.cls-37{fill:url(#linear-gradient-31);}.cls-38{fill:#7d97f4;}.cls-39{fill:url(#linear-gradient-41);}.cls-40{fill:url(#linear-gradient-21);}.cls-41{fill:url(#linear-gradient-25);}.cls-42{fill:url(#linear-gradient-5);}.cls-43{fill:url(#linear-gradient-54);}.cls-44{fill:url(#linear-gradient-45);}.cls-45{fill:url(#linear-gradient-55);}.cls-46{fill:url(#linear-gradient-34);}.cls-47{opacity:.12;}.cls-48{fill:url(#linear-gradient-7);}.cls-49{fill:url(#linear-gradient-24);}.cls-50{fill:url(#linear-gradient-9);}.cls-51{fill:url(#linear-gradient-22);}.cls-52{fill:url(#linear-gradient-42);}.cls-53{fill:url(#linear-gradient-3);}.cls-54{fill:url(#linear-gradient);}.cls-8{opacity:.78;}.cls-55{fill:url(#linear-gradient-27);}.cls-56{fill:url(#linear-gradient-33);}.cls-57{fill:url(#linear-gradient-38);}.cls-58{fill:url(#linear-gradient-29);}.cls-59{fill:url(#linear-gradient-30);}.cls-60{fill:#bdd0fb;}.cls-61{fill:url(#linear-gradient-23);}.cls-62{fill:url(#linear-gradient-19);}.cls-63{fill:url(#linear-gradient-4);}.cls-64{fill:url(#linear-gradient-8);}.cls-65{fill:url(#linear-gradient-44);}.cls-66{fill:url(#linear-gradient-57);}.cls-67{fill:url(#linear-gradient-47);}.cls-68{fill:url(#linear-gradient-46);}.cls-69{fill:url(#linear-gradient-12);}.cls-70{fill:url(#linear-gradient-13);}.cls-71{fill:url(#linear-gradient-26);}</style><linearGradient id="linear-gradient" x1="3842.16" y1="4276.18" x2="1072.66" y2="836.64" gradientUnits="userSpaceOnUse"><stop offset="0" stop-color="#dae3fe"/><stop offset="1" stop-color="#e9effd"/></linearGradient><linearGradient id="linear-gradient-2" x1="-1016.79" y1="2920.41" x2="-389.92" y2="1039.8" gradientTransform="translate(1155.78) rotate(-180) scale(1 -1)" gradientUnits="userSpaceOnUse"><stop offset="0" stop-color="#09005d"/><stop offset="1" stop-color="#1a0f91"/></linearGradient><linearGradient id="linear-gradient-3" x1="582.1" y1="2183.32" x2="3244.63" y2="2183.32" gradientUnits="userSpaceOnUse"><stop offset="0" stop-color="#4f52ff"/><stop offset="1" stop-color="#4042e2"/></linearGradient><linearGradient id="linear-gradient-4" x1="1903.76" y1="1252.98" x2="1903.76" y2="2009.28" gradientTransform="translate(3807.52 6206.02) rotate(-180)" xlink:href="#linear-gradient-2"/><linearGradient id="linear-gradient-5" x1="777.53" y1="1957.6" x2="939.3" y2="1472.29" gradientTransform="translate(1148.4 -306.27) rotate(-2.02)" xlink:href="#linear-gradient-3"/><linearGradient id="linear-gradient-6" x1="781.32" y1="1949.26" x2="933.35" y2="1493.17" gradientTransform="translate(1148.4 -306.27) rotate(-2.02)" gradientUnits="userSpaceOnUse"><stop offset="0" stop-color="#9cfffb"/><stop offset="1" stop-color="#9bfffa"/></linearGradient><linearGradient id="linear-gradient-7" x1="854.04" y1="1663.73" x2="575.26" y2="1769.82" gradientTransform="translate(1148.4 -306.27) rotate(-2.02)" gradientUnits="userSpaceOnUse"><stop offset="0" stop-color="#fe7062"/><stop offset="1" stop-color="#ff928e"/></linearGradient><linearGradient id="linear-gradient-8" x1="1626.75" y1="1148.01" x2="1786.81" y2="962.22" gradientTransform="matrix(1, 0, 0, 1, 0, 0)" xlink:href="#linear-gradient-7"/><linearGradient id="linear-gradient-9" x1="1877.45" y1="826.42" x2="1403.08" y2="1543.05" gradientTransform="matrix(1, 0, 0, 1, 0, 0)" xlink:href="#linear-gradient-7"/><linearGradient id="linear-gradient-10" x1="1863.59" y1="846.44" x2="1609.82" y2="1272.46" gradientTransform="matrix(1, 0, 0, 1, 0, 0)" xlink:href="#linear-gradient-7"/><linearGradient id="linear-gradient-11" x1="1841.85" y1="1145.81" x2="2120.49" y2="822.39" gradientTransform="matrix(1, 0, 0, 1, 0, 0)" xlink:href="#linear-gradient-7"/><linearGradient id="linear-gradient-12" x1="2278.28" y1="585.98" x2="1452.49" y2="1833.51" gradientTransform="matrix(1, 0, 0, 1, 0, 0)" xlink:href="#linear-gradient-7"/><linearGradient id="linear-gradient-13" x1="2254.15" y1="620.83" x2="1812.39" y2="1362.46" gradientTransform="matrix(1, 0, 0, 1, 0, 0)" xlink:href="#linear-gradient-7"/><linearGradient id="linear-gradient-14" x1="1975.35" y1="1622.98" x2="2262.07" y2="1290.19" gradientTransform="matrix(1, 0, 0, 1, 0, 0)" xlink:href="#linear-gradient-7"/><linearGradient id="linear-gradient-15" x1="2424.44" y1="1046.93" x2="1574.71" y2="2330.62" gradientTransform="matrix(1, 0, 0, 1, 0, 0)" xlink:href="#linear-gradient-7"/><linearGradient id="linear-gradient-16" x1="2399.6" y1="1082.79" x2="1945.04" y2="1845.92" gradientTransform="matrix(1, 0, 0, 1, 0, 0)" xlink:href="#linear-gradient-7"/><linearGradient id="linear-gradient-17" x1="2324.86" y1="1238.78" x2="2534.93" y2="994.94" gradientTransform="matrix(1, 0, 0, 1, 0, 0)" xlink:href="#linear-gradient-7"/><linearGradient id="linear-gradient-18" x1="2653.89" y1="816.71" x2="2031.31" y2="1757.26" gradientTransform="matrix(1, 0, 0, 1, 0, 0)" xlink:href="#linear-gradient-7"/><linearGradient id="linear-gradient-19" x1="2635.7" y1="842.98" x2="2302.65" y2="1402.12" gradientTransform="matrix(1, 0, 0, 1, 0, 0)" xlink:href="#linear-gradient-7"/><linearGradient id="linear-gradient-20" x1="909.08" y1="3555.06" x2="1181.98" y2="1910.1" gradientTransform="matrix(1, 0, 0, 1, 0, 0)" xlink:href="#linear-gradient-7"/><linearGradient id="linear-gradient-21" x1="2212.92" y1="1673.62" x2="1304.9" y2="2519.22" gradientTransform="matrix(1, 0, 0, 1, 0, 0)" xlink:href="#linear-gradient-7"/><linearGradient id="linear-gradient-22" x1="2380.75" y1="1759.53" x2="542.11" y2="2328.26" gradientUnits="userSpaceOnUse"><stop offset="0" stop-color="#e1473d"/><stop offset="1" stop-color="#e9605a"/></linearGradient><linearGradient id="linear-gradient-23" x1="2389.23" y1="1789.13" x2="550.6" y2="2357.86" xlink:href="#linear-gradient-22"/><linearGradient id="linear-gradient-24" x1="2396.73" y1="1815.27" x2="558.09" y2="2384" xlink:href="#linear-gradient-22"/><linearGradient id="linear-gradient-25" x1="2405.21" y1="1844.87" x2="566.58" y2="2413.6" xlink:href="#linear-gradient-22"/><linearGradient id="linear-gradient-26" x1="2412.71" y1="1871.01" x2="574.08" y2="2439.75" xlink:href="#linear-gradient-22"/><linearGradient id="linear-gradient-27" x1="2421.2" y1="1900.61" x2="582.56" y2="2469.34" xlink:href="#linear-gradient-22"/><linearGradient id="linear-gradient-28" x1="2428.69" y1="1926.76" x2="590.06" y2="2495.49" xlink:href="#linear-gradient-22"/><linearGradient id="linear-gradient-29" x1="2437.18" y1="1956.35" x2="598.54" y2="2525.09" xlink:href="#linear-gradient-22"/><linearGradient id="linear-gradient-30" x1="2444.68" y1="1982.5" x2="606.04" y2="2551.23" xlink:href="#linear-gradient-22"/><linearGradient id="linear-gradient-31" x1="2453.17" y1="2012.09" x2="614.53" y2="2580.83" xlink:href="#linear-gradient-22"/><linearGradient id="linear-gradient-32" x1="2460.66" y1="2038.24" x2="622.02" y2="2606.97" xlink:href="#linear-gradient-22"/><linearGradient id="linear-gradient-33" x1="2469.15" y1="2067.84" x2="630.51" y2="2636.57" xlink:href="#linear-gradient-22"/><linearGradient id="linear-gradient-34" x1="-861.51" y1="1585.67" x2="870.62" y2="2865.26" xlink:href="#linear-gradient-22"/><linearGradient id="linear-gradient-35" x1="539.1" y1="2119.1" x2="704.73" y2="1541.9" gradientUnits="userSpaceOnUse"><stop offset="0" stop-color="#febbba"/><stop offset="1" stop-color="#ff928e"/></linearGradient><linearGradient id="linear-gradient-36" x1="645.68" y1="2150.15" x2="811.31" y2="1572.95" xlink:href="#linear-gradient-35"/><linearGradient id="linear-gradient-37" x1="734.26" y1="2175.95" x2="899.89" y2="1598.75" xlink:href="#linear-gradient-35"/><linearGradient id="linear-gradient-38" x1="825.51" y1="2202.54" x2="991.14" y2="1625.34" xlink:href="#linear-gradient-35"/><linearGradient id="linear-gradient-39" x1="909.87" y1="2227.11" x2="1075.5" y2="1649.91" xlink:href="#linear-gradient-35"/><linearGradient id="linear-gradient-40" x1="1001.12" y1="2253.69" x2="1166.75" y2="1676.49" xlink:href="#linear-gradient-35"/><linearGradient id="linear-gradient-41" x1="1089.7" y1="2279.5" x2="1255.33" y2="1702.3" xlink:href="#linear-gradient-35"/><linearGradient id="linear-gradient-42" x1="1873.89" y1="2234.88" x2="-450.29" y2="2420.81" xlink:href="#linear-gradient-35"/><linearGradient id="linear-gradient-43" x1="1874.34" y1="2241.33" x2="-449.84" y2="2427.27" xlink:href="#linear-gradient-35"/><linearGradient id="linear-gradient-44" x1="1874.87" y1="2248.97" x2="-449.3" y2="2434.9" xlink:href="#linear-gradient-35"/><linearGradient id="linear-gradient-45" x1="1876.11" y1="2266.37" x2="-448.06" y2="2452.3" xlink:href="#linear-gradient-35"/><linearGradient id="linear-gradient-46" x1="1875.47" y1="2257.5" x2="-448.7" y2="2443.43" xlink:href="#linear-gradient-35"/><linearGradient id="linear-gradient-47" x1="21814.86" y1="2222.67" x2="21296.04" y2="2518.81" gradientTransform="translate(-19663.66)" xlink:href="#linear-gradient-35"/><linearGradient id="linear-gradient-48" x1="-11677.93" y1="24431.25" x2="-11685.61" y2="25122.57" gradientTransform="translate(-10368.38 2161.15) rotate(-153.82) scale(1 -1)" xlink:href="#linear-gradient-2"/><linearGradient id="linear-gradient-49" x1="21772.45" y1="2294.11" x2="23572.98" y2="1166.95" gradientTransform="translate(-19663.66)" xlink:href="#linear-gradient-35"/><linearGradient id="linear-gradient-50" x1="-9923.73" y1="32767.6" x2="-9931.42" y2="33459.8" gradientTransform="translate(-10385.97 3191.1) rotate(-142.14) scale(1 -1)" xlink:href="#linear-gradient-2"/><linearGradient id="linear-gradient-51" x1="13498.34" y1="1839.73" x2="13065.67" y2="2313.88" gradientTransform="translate(-11831.96)" xlink:href="#linear-gradient-3"/><linearGradient id="linear-gradient-52" x1="-14271.28" y1="-1905.19" x2="-14141.19" y2="-1578.85" gradientTransform="translate(-12528.12 -1699.17) rotate(-160.83) scale(1 -1)" xlink:href="#linear-gradient-2"/><linearGradient id="linear-gradient-53" x1="1372.56" y1="1793.71" x2="1004.66" y2="2424.4" gradientTransform="matrix(1, 0, 0, 1, 0, 0)" xlink:href="#linear-gradient-7"/><linearGradient id="linear-gradient-54" x1="-12505.79" y1="2041.57" x2="-11984.46" y2="2041.57" gradientTransform="translate(-11267.2) rotate(-180) scale(1 -1)" xlink:href="#linear-gradient-35"/><linearGradient id="linear-gradient-55" x1="-14468.14" y1="647.11" x2="-14442.17" y2="457.17" gradientTransform="translate(-12933.07 105.01) rotate(-175.89) scale(1 -1)" xlink:href="#linear-gradient-35"/><linearGradient id="linear-gradient-56" x1="-11502.8" y1="-6764.19" x2="-11259.29" y2="-7197.56" gradientTransform="translate(-10514.08 -4320.77) rotate(-123.08) scale(1 -1)" xlink:href="#linear-gradient-35"/><linearGradient id="linear-gradient-57" x1="-11448.83" y1="-7139.08" x2="-11328.78" y2="-6837.93" gradientTransform="translate(-10514.08 -4320.77) rotate(-123.08) scale(1 -1)" xlink:href="#linear-gradient-2"/><linearGradient id="linear-gradient-58" x1="-11451.04" y1="-6735.85" x2="-11207.59" y2="-7169.12" gradientTransform="translate(-10514.08 -4320.77) rotate(-123.08) scale(1 -1)" xlink:href="#linear-gradient-35"/><linearGradient id="linear-gradient-59" x1="-12576.02" y1="1472.36" x2="-12848.79" y2="1547.12" gradientTransform="translate(-11225.73 -55.03) rotate(-177.17) scale(1 -1)" xlink:href="#linear-gradient-2"/><linearGradient id="linear-gradient-60" x1="-1686.22" y1="1990.34" x2="764.28" y2="1784.16" gradientTransform="translate(283.91) rotate(-180) scale(1 -1)" xlink:href="#linear-gradient-2"/></defs><g id="Background"><rect class="cls-3" width="3710" height="3710"/></g><g id="Illustration"><g><path class="cls-54" d="M3067.29,2928.65c-62.9,67.45-122.42,110.96-169.45,145.32-552.77,404-1206.84,286.23-1345.84,257.48-205.27-42.47-602.06-124.56-888.93-468.19-434.01-519.88-366.43-1338.95-29.78-1879.62,61.58-98.9,386.85-647.81,1047.96-735.84,400.1-53.27,866.49,54.17,1204.23,342.4,708.96,605.02,658.49,1827.27,181.8,2338.44Z"/><g><path class="cls-1" d="M570.78,2993.68c0,27.14,21.82,49.34,48.49,49.34H3241.4c26.67,0,48.49-22.2,48.49-49.34l21.82-1534.91c0-27.14-31.39-80.12-88.92-76.14l-2562.63-67.54c-33.46-.88-65.82,12.24-89.51,36.3-23.7,24.06-36.66,56.95-35.87,91.01l36.01,1551.29Z"/><path class="cls-53" d="M618.66,2946.34c0,25.7,20.64,46.73,45.87,46.73H3178.17c25.23,0,45.87-21.03,45.87-46.73l20.59-1393.4c-2.42-83.85-74.6-113.99-118.35-112.21l-2456.05-67.12c-23.51-.64-46.24,8.58-62.89,25.5s-25.81,40.07-25.22,64.02l36.53,1483.22Z"/><g><path class="cls-7" d="M3196.88,2284.37h-.1c-3.71-.05-6.68-3.16-6.62-6.95l1.63-113c.05-3.75,3.05-6.75,6.72-6.75h.1c3.71,.05,6.68,3.16,6.62,6.95l-1.63,113c-.05,3.75-3.05,6.75-6.72,6.75Z"/><path class="cls-7" d="M3200.88,2007.46h-.1c-3.71-.05-6.68-3.17-6.62-6.95l6.24-432.8c-.12-25.71-7.78-46.23-22.77-60.87-27.99-27.31-72.43-25.92-74.3-25.83l-785.01-21.44c-3.71-.1-6.64-3.25-6.54-7.03,.1-3.78,2.95-7,6.9-6.66l784.54,21.44c4.88-.29,52.19-1.13,83.7,29.62,17.73,17.3,26.78,41.14,26.92,70.83l-6.24,432.94c-.05,3.75-3.05,6.75-6.72,6.75Z"/></g><rect class="cls-63" x="358.07" y="3035.58" width="3091.39" height="134.86" rx="5.65" ry="5.65" transform="translate(3807.52 6206.02) rotate(180)"/></g><g><path class="cls-32" d="M2746.79,252.86l-1819.56-11.35c-59.8-.37-107.62,50.51-104.66,111.34l125.18,2633.28h2024.83l112.43-2352.69-338.22-380.58Z"/><path class="cls-60" d="M2822.46,622.16c-59.27-2.12-104.84-54.16-100.17-114.38l19.51-251.45,343.57,375.57-262.91-9.74Z"/><g><path class="cls-4" d="M2755.29,1589.55H1176.87c-47.62,0-86.63-22.16-88.08-50.05l-32.98-634.18c-1.51-29.11,38.36-53.19,88.08-53.19h1611.4c48.67,0,88.12,23.11,88.12,51.62v634.18c0,28.51-39.45,51.62-88.12,51.62Z"/><path class="cls-3" d="M2752.76,1595.23H1174.33c-50.89,0-92.02-24.34-93.64-55.42l-32.98-634.18c-.56-10.76,3.65-21.29,12.18-30.45,16.49-17.71,47.7-28.71,81.46-28.71h1611.4c52.54,0,93.69,25.17,93.69,57.29v634.18c0,32.13-41.15,57.29-93.69,57.29ZM1141.35,857.81c-30.8,0-58.92,9.65-73.38,25.18-6.46,6.94-9.54,14.36-9.14,22.04l32.98,634.18c1.28,24.64,38.3,44.68,82.52,44.68h1578.42c44.75,0,82.55-21.04,82.55-45.95V903.75c0-24.91-37.8-45.95-82.55-45.95H1141.35Z"/><rect class="cls-3" x="1146.76" y="1212.75" width="742.49" height="11.14" transform="translate(292.16 2730.24) rotate(-89.71)"/><rect class="cls-3" x="2074.87" y="1212.75" width="742.49" height="11.14" transform="translate(1215.65 3658.34) rotate(-89.71)"/><rect class="cls-3" x="2174.68" y="397.03" width="11.34" height="1321.06" transform="translate(1111.93 3232.61) rotate(-89.71)"/><rect class="cls-3" x="1516.19" y="1340.26" width="1324.56" height="11.34"/></g><g><path class="cls-4" d="M2757.99,2822.32H1179.57c-47.62,0-86.63-22.16-88.08-50.05l-32.98-634.18c-1.51-29.11,38.36-53.19,88.08-53.19h1611.4c48.67,0,88.12,23.11,88.12,51.62v634.18c0,28.51-39.45,51.62-88.12,51.62Z"/><path class="cls-3" d="M2755.46,2827.99H1177.03c-50.89,0-92.02-24.34-93.64-55.42l-32.98-634.18c-.56-10.76,3.65-21.29,12.18-30.45,16.49-17.71,47.7-28.71,81.46-28.71h1611.4c52.54,0,93.69,25.17,93.69,57.29v634.18c0,32.13-41.15,57.29-93.69,57.29Zm-1611.4-737.42c-30.8,0-58.92,9.65-73.38,25.18-6.46,6.94-9.54,14.36-9.14,22.04l32.98,634.18c1.28,24.64,38.3,44.68,82.52,44.68h1578.42c44.75,0,82.55-21.04,82.55-45.95v-634.18c0-24.91-37.8-45.95-82.55-45.95H1144.05Z"/><rect class="cls-3" x="1149.47" y="2445.51" width="742.49" height="11.14" transform="translate(-937.89 3959.6) rotate(-89.72)"/><rect class="cls-3" x="2077.57" y="2445.51" width="742.49" height="11.14" transform="translate(-14.39 4887.7) rotate(-89.72)"/><rect class="cls-3" x="2177.38" y="1629.8" width="11.34" height="1321.06" transform="translate(-118.13 4461.93) rotate(-89.71)"/><rect class="cls-3" x="1518.89" y="2573.03" width="1324.56" height="11.34"/></g><rect class="cls-6" x="1093.44" y="1712.51" width="1727.74" height="98.32" rx="6.9" ry="6.9"/><rect class="cls-6" x="1088.42" y="1863.77" width="1727.74" height="98.32" rx="6.9" ry="6.9"/></g><g><path class="cls-42" d="M2403.36,1226.52l3.97,346.46,.61,53.65c.24,7-5.19,12.93-12.06,13.17l-675.73,24.3c-6.87,.25-12.7-5.28-12.94-12.27l-2.62-53.57-16.71-341.77c-.24-7,7.38-20.94,22.24-20.45l659.8-41.16c8.61-.53,17.07,2.54,23.39,8.53,6.32,5.98,9.96,14.33,10.06,23.11Z"/><g class="cls-47"><path class="cls-21" d="M2391.04,1616.4c.23,6.53-4.95,12.06-11.49,12.29l-643.71,23.15c-6.55,.24-12.09-4.91-12.31-11.44l-18.15-368.94c-.23-6.53,7.04-19.55,21.19-19.1l628.54-38.87c8.21-.51,16.26,2.36,22.28,7.94,6.02,5.58,9.47,13.37,9.56,21.57l4.09,373.39Z"/></g><path class="cls-32" d="M2307.16,1634.86c-1,0-1.82-.8-1.86-1.82-.04-1.04,.76-1.92,1.79-1.96l72.06-2.59c4.2-.15,8.51-2.33,11.83-5.98,3.31-3.64,5.13-8.2,4.98-12.49l-7.78-224.5c-.04-1.04,.76-1.92,1.79-1.96,1.06-.14,1.89,.78,1.92,1.82l7.78,224.5c.38,11.11-9.52,21.99-20.39,22.38l-72.06,2.59s-.04,0-.07,0Z"/><path class="cls-32" d="M1710.69,1411.78c-1,0-1.82-.8-1.86-1.82l-4.67-134.57c-.51-14.76,10.3-27.64,23.59-28.12l57.24-2.06c1.06-.14,1.89,.78,1.92,1.82,.04,1.04-.76,1.92-1.79,1.96l-57.24,2.06c-11.09,.4-20.44,11.71-20.01,24.21l4.67,134.57c.04,1.04-.76,1.92-1.79,1.96-.02,0-.04,0-.07,0Z"/><g><path class="cls-48" d="M1873.03,1393.51c-.24-7.03-6.04-12.53-12.94-12.28l-83.46,3c-6.9,.25-12.3,6.15-12.06,13.18l2.24,64.66c.24,7.03,6.04,12.53,12.94,12.28l83.46-3c6.9-.25,12.3-6.15,12.06-13.18l-2.24-64.66Z"/><g><path class="cls-5" d="M1804.15,1447.86c-3.86,0-7.08-3.13-7.22-7.1l-.74-21.34c-.14-4.06,2.99-7.48,6.97-7.62l23.8-.86c3.79-.14,7.34,3.04,7.48,7.09h0s.74,21.34,.74,21.34c.14,4.06-2.99,7.48-6.97,7.62l-23.8,.85c-.09,0-.17,0-.26,0Zm23.06-29.94h-.01l-23.8,.86c-.2,0-.37,.18-.36,.4l.74,21.34c0,.2,.17,.36,.37,.36h.01l23.8-.85c.2,0,.37-.18,.36-.4l-.74-21.33c0-.21-.17-.37-.37-.37Z"/><g><path class="cls-3" d="M1765.53,1428.87c-1.84,0-3.36-1.48-3.42-3.37-.07-1.93,1.41-3.55,3.31-3.61l34.25-1.23c1.79-.03,3.48,1.44,3.55,3.37,.07,1.93-1.41,3.55-3.31,3.61l-34.25,1.23s-.08,0-.12,0Z"/><path class="cls-3" d="M1765.83,1437.6c-1.84,0-3.36-1.48-3.42-3.37-.07-1.93,1.41-3.55,3.31-3.61l34.25-1.23c1.81-.04,3.48,1.44,3.55,3.37,.07,1.93-1.41,3.55-3.31,3.61l-34.25,1.23s-.08,0-.12,0Z"/></g><g><path class="cls-3" d="M1836.89,1426.31c-1.84,0-3.36-1.48-3.42-3.37-.07-1.93,1.41-3.55,3.31-3.61l37.11-1.33c1.75-.07,3.48,1.44,3.55,3.37,.07,1.93-1.41,3.55-3.31,3.61l-37.11,1.33s-.08,0-.12,0Z"/><path class="cls-3" d="M1837.19,1435.03c-1.84,0-3.36-1.48-3.42-3.37-.07-1.93,1.41-3.55,3.31-3.61l37.11-1.33c1.76-.09,3.48,1.44,3.55,3.37,.07,1.93-1.41,3.55-3.31,3.61l-37.11,1.33s-.08,0-.12,0Z"/></g><g><g><path class="cls-3" d="M1807.27,1418.78c-1.5,0-2.89-1.02-3.3-2.57l-8.45-31.38c-.5-1.86,.57-3.78,2.4-4.29,1.8-.51,3.71,.58,4.21,2.44l8.45,31.38c.5,1.86-.57,3.78-2.4,4.29-.3,.08-.61,.13-.91,.13Z"/><path class="cls-3" d="M1827.17,1418.06c-.23,0-.47-.02-.7-.07-1.85-.4-3.04-2.24-2.66-4.13l6.53-31.92c.39-1.89,2.22-3.1,4.06-2.71,1.85,.4,3.04,2.24,2.66,4.13l-6.53,31.92c-.34,1.65-1.77,2.78-3.35,2.78Z"/></g><g><path class="cls-3" d="M1801.97,1478.16c-.22,0-.45-.02-.67-.07-1.86-.38-3.06-2.22-2.69-4.11l6.26-31.91c.37-1.89,2.17-3.12,4.03-2.74,1.86,.38,3.06,2.22,2.69,4.11l-6.26,31.91c-.32,1.66-1.75,2.81-3.36,2.81Z"/><path class="cls-3" d="M1836.85,1476.9c-1.5,0-2.87-1-3.3-2.54l-8.72-31.37c-.51-1.86,.54-3.79,2.36-4.31,1.83-.53,3.72,.56,4.23,2.41l8.72,31.37c.51,1.86-.54,3.79-2.36,4.31-.31,.09-.63,.13-.94,.13Z"/></g></g></g></g><path class="cls-38" d="M1869.74,1298.78c.29,8.35-6.12,15.36-14.32,15.66l-93.05,3.35c-8.2,.29-15.08-6.24-15.37-14.59l-.06-1.74c-.29-8.35,6.12-15.36,14.32-15.66l93.05-3.35c8.2-.29,15.08,6.24,15.37,14.59l.06,1.74Z"/><g><path class="cls-38" d="M1886.19,1525.95c.28,7.97-5.84,14.66-13.66,14.94l-102.97,3.7c-7.82,.28-14.39-5.95-14.66-13.92v-.22c-.28-7.97,5.83-14.66,13.66-14.94l102.97-3.7c7.82-.28,14.39,5.95,14.66,13.92v.22Z"/><path class="cls-38" d="M2034.62,1520.61c.28,7.97-5.84,14.66-13.66,14.94l-102.97,3.7c-7.82,.28-14.39-5.95-14.66-13.92v-.22c-.28-7.97,5.83-14.66,13.66-14.94l102.97-3.7c7.82-.28,14.39,5.95,14.66,13.92v.22Z"/><path class="cls-38" d="M2183.04,1515.28c.28,7.97-5.84,14.66-13.66,14.94l-102.97,3.7c-7.82,.28-14.39-5.95-14.66-13.92v-.22c-.28-7.97,5.83-14.66,13.66-14.94l102.97-3.7c7.82-.28,14.39,5.95,14.66,13.92v.22Z"/><path class="cls-38" d="M2334.33,1509.84c.28,7.97-5.84,14.66-13.66,14.94l-102.97,3.7c-7.82,.28-14.39-5.95-14.66-13.92v-.22c-.28-7.97,5.83-14.66,13.66-14.94l102.97-3.7c7.82-.28,14.39,5.95,14.66,13.92v.22Z"/></g><g class="cls-29"><path class="cls-38" d="M1985.46,1586.48c.22,6.34-4.64,11.65-10.86,11.88l-191.55,6.89c-6.22,.22-11.44-4.73-11.66-11.07v-.32c-.23-6.34,4.63-11.65,10.85-11.88l191.55-6.89c6.22-.22,11.44,4.73,11.66,11.07v.32Z"/><path class="cls-38" d="M2319.22,1568.65c.22,6.34-4.64,11.65-10.86,11.88l-83.09,2.99c-6.22,.22-11.44-4.73-11.66-11.07v-.32c-.23-6.34,4.63-11.65,10.85-11.88l83.09-2.99c6.22-.22,11.44,4.73,11.66,11.07v.32Z"/></g></g><g><g><ellipse class="cls-64" cx="1790.04" cy="958.47" rx="118.07" ry="120.26"/><ellipse class="cls-50" cx="1790.04" cy="958.47" rx="114.14" ry="116.26"/><path class="cls-8" d="M1695.92,914.69c-.67,0-1.35-.15-1.99-.48-2.19-1.12-3.06-3.84-1.96-6.07,18.8-37.94,56.38-61.51,98.07-61.51,6.66,0,13.32,.61,19.8,1.81,2.41,.45,4.01,2.8,3.57,5.25-.44,2.45-2.74,4.07-5.16,3.63-5.96-1.11-12.09-1.67-18.21-1.67-38.33,0-72.88,21.67-90.16,56.55-.78,1.57-2.34,2.48-3.96,2.48Z"/><ellipse class="cls-8" cx="1792.53" cy="961.01" rx="96.61" ry="98.4"/><path class="cls-31" d="M1783.05,1034.16v-10.71c-10.96-.45-21.79-3.08-29.49-6.51-2.75-1.23-4.15-4.37-3.36-7.32l2.67-9.97c.98-3.66,4.89-5.55,8.32-4.08,7.64,3.26,17.06,5.84,27.23,5.84s18.42-3.64,18.42-11.11c0-6.74-6.08-10.75-20.75-14.76-20.93-5.83-35.95-15.12-35.95-33.89,0-16.94,12.16-29.88,33.27-33.34v-10.71c0-3.44,2.74-6.24,6.12-6.24h6.18c3.38,0,6.12,2.79,6.12,6.24v9.61c10.14,.41,17.52,2.18,23.37,4.28,3,1.07,4.64,4.37,3.81,7.49l-2.46,9.22c-.95,3.56-4.68,5.5-8.06,4.2-5.39-2.08-13.02-4.24-22.93-4.24-12.52,0-16.1,5.28-16.1,10.02,0,5.83,7.51,9.84,23.79,14.94,23.25,7.11,32.91,16.94,32.91,34.62,0,16.22-11.8,30.79-34.7,34.44v11.98c0,3.45-2.74,6.24-6.12,6.24h-6.18c-3.38,0-6.12-2.79-6.12-6.24Z"/></g><g><ellipse class="cls-27" cx="2126.12" cy="815.85" rx="205.53" ry="209.36"/><ellipse class="cls-69" cx="2126.12" cy="815.85" rx="198.7" ry="202.4"/><path class="cls-8" d="M1962.27,736.3c-.67,0-1.35-.15-1.99-.48-2.19-1.12-3.06-3.84-1.96-6.07,32.17-64.91,96.47-105.24,167.8-105.24,11.38,0,22.78,1.05,33.88,3.1,2.41,.45,4.01,2.8,3.57,5.25-.44,2.45-2.74,4.07-5.16,3.63-10.58-1.96-21.45-2.96-32.3-2.96-67.97,0-129.23,38.42-159.89,100.28-.78,1.57-2.34,2.48-3.96,2.48Z"/><ellipse class="cls-8" cx="2130.45" cy="820.26" rx="168.17" ry="171.3"/><path class="cls-70" d="M2113.94,947.61v-18.64c-19.07-.78-37.94-5.36-51.34-11.34-4.78-2.13-7.22-7.6-5.85-12.74l4.65-17.36c1.71-6.37,8.5-9.66,14.48-7.11,13.29,5.68,29.7,10.17,47.4,10.17s32.07-6.34,32.07-19.35c0-11.73-10.59-18.71-36.12-25.69-36.43-10.15-62.59-26.33-62.59-58.99,0-29.5,21.17-52.02,57.92-58.04v-18.64c0-6,4.77-10.86,10.66-10.86h10.75c5.89,0,10.66,4.86,10.66,10.86v16.73c17.65,.72,30.5,3.79,40.69,7.44,5.22,1.87,8.08,7.6,6.63,13.04l-4.27,16.06c-1.65,6.19-8.14,9.58-14.03,7.31-9.39-3.62-22.66-7.38-39.91-7.38-21.8,0-28.02,9.2-28.02,17.44,0,10.15,13.08,17.13,41.41,26.01,40.48,12.37,57.29,29.5,57.29,60.26,0,28.23-20.55,53.6-60.41,59.95v20.86c0,6-4.77,10.86-10.66,10.86h-10.75c-5.89,0-10.66-4.86-10.66-10.86Z"/></g><g><ellipse class="cls-18" cx="2267.86" cy="1283.46" rx="211.49" ry="215.43"/><ellipse class="cls-11" cx="2267.86" cy="1283.46" rx="204.46" ry="208.26"/><path class="cls-8" d="M2099.27,1201.47c-.67,0-1.35-.15-1.99-.48-2.19-1.12-3.06-3.84-1.96-6.07,33.08-66.75,99.19-108.22,172.55-108.22,11.71,0,23.43,1.07,34.84,3.19,2.41,.45,4,2.8,3.57,5.25-.44,2.45-2.73,4.07-5.16,3.63-10.89-2.02-22.08-3.05-33.26-3.05-69.99,0-133.07,39.56-164.64,103.26-.78,1.57-2.34,2.48-3.96,2.48Z"/><ellipse class="cls-8" cx="2272.32" cy="1288" rx="173.05" ry="176.27"/><path class="cls-36" d="M2255.34,1419.04v-19.18c-19.63-.8-39.04-5.52-52.83-11.67-4.92-2.2-7.43-7.82-6.02-13.11l4.78-17.86c1.75-6.55,8.75-9.94,14.9-7.32,13.68,5.84,30.56,10.46,48.77,10.46s33-6.53,33-19.91c0-12.07-10.89-19.25-37.17-26.43-37.49-10.44-64.4-27.09-64.4-60.7,0-30.35,21.79-53.52,59.6-59.72v-19.18c0-6.17,4.91-11.17,10.97-11.17h11.06c6.06,0,10.97,5,10.97,11.17v17.22c18.16,.74,31.38,3.9,41.87,7.66,5.37,1.92,8.31,7.82,6.82,13.42l-4.4,16.52c-1.7,6.37-8.38,9.86-14.44,7.53-9.66-3.72-23.32-7.6-41.07-7.6-22.43,0-28.84,9.46-28.84,17.95,0,10.44,13.46,17.62,42.61,26.76,41.65,12.73,58.95,30.35,58.95,62.01,0,29.05-21.15,55.16-62.16,61.68v21.46c0,6.17-4.91,11.17-10.97,11.17h-11.06c-6.06,0-10.97-5-10.97-11.17Z"/></g><g><ellipse class="cls-9" cx="2539.18" cy="990.01" rx="154.96" ry="157.84"/><ellipse class="cls-13" cx="2539.18" cy="990.01" rx="149.8" ry="152.59"/><path class="cls-8" d="M2415.65,931.14c-.67,0-1.35-.15-1.99-.48-2.19-1.12-3.06-3.84-1.96-6.07,24.44-49.32,73.29-79.95,127.48-79.95,8.65,0,17.32,.79,25.74,2.36,2.41,.45,4,2.8,3.57,5.25-.44,2.46-2.73,4.08-5.16,3.63-7.9-1.47-16.03-2.21-24.15-2.21-50.83,0-96.65,28.74-119.57,74.99-.78,1.57-2.34,2.48-3.96,2.48Z"/><ellipse class="cls-8" cx="2542.44" cy="993.34" rx="126.79" ry="129.15"/><path class="cls-62" d="M2530,1089.35v-14.05c-14.38-.59-28.6-4.04-38.71-8.55-3.61-1.61-5.45-5.73-4.41-9.6l3.5-13.09c1.29-4.8,6.41-7.28,10.92-5.36,10.02,4.28,22.39,7.67,35.74,7.67s24.18-4.78,24.18-14.59c0-8.85-7.98-14.11-27.23-19.37-27.47-7.65-47.19-19.85-47.19-44.48,0-22.24,15.96-39.22,43.66-43.76v-14.05c0-4.52,3.6-8.19,8.04-8.19h8.1c4.44,0,8.04,3.67,8.04,8.19v12.62c13.31,.54,22.99,2.86,30.68,5.61,3.94,1.41,6.09,5.73,5,9.83l-3.22,12.1c-1.24,4.67-6.14,7.22-10.58,5.51-7.08-2.73-17.08-5.56-30.09-5.56-16.43,0-21.13,6.93-21.13,13.15,0,7.65,9.86,12.91,31.22,19.61,30.52,9.33,43.19,22.24,43.19,45.43,0,21.28-15.49,40.41-45.54,45.2v15.72c0,4.52-3.6,8.19-8.04,8.19h-8.11c-4.44,0-8.04-3.67-8.04-8.19Z"/></g></g><g><path class="cls-20" d="M356.38,2314.52H1701.15v1036.85c0,9.25-7.51,16.76-16.76,16.76H373.14c-9.25,0-16.76-7.51-16.76-16.76v-1036.85h0Z"/><path class="cls-40" d="M356.38,2269.8H1701.15v1005.84c0,9.25-7.51,16.76-16.76,16.76H373.14c-9.25,0-16.76-7.51-16.76-16.76v-1005.84h0Z"/><g><rect class="cls-51" x="433.8" y="2314.52" width="46.3" height="80.17"/><rect class="cls-61" x="537.97" y="2314.52" width="46.3" height="80.17"/><rect class="cls-49" x="629.99" y="2314.52" width="46.3" height="80.17"/><rect class="cls-41" x="734.16" y="2314.52" width="46.3" height="80.17"/><rect class="cls-71" x="826.18" y="2314.52" width="46.3" height="80.17"/><rect class="cls-55" x="930.35" y="2314.52" width="46.3" height="80.17"/><rect class="cls-17" x="1022.37" y="2314.52" width="46.3" height="80.17"/><rect class="cls-58" x="1126.54" y="2314.52" width="46.3" height="80.17"/><rect class="cls-59" x="1218.56" y="2314.52" width="46.3" height="80.17"/><rect class="cls-37" x="1322.73" y="2314.52" width="46.3" height="80.17"/><rect class="cls-26" x="1414.74" y="2314.52" width="46.3" height="80.17"/><rect class="cls-56" x="1518.92" y="2314.52" width="46.3" height="80.17"/></g><g><g><rect class="cls-3" x="954.89" y="2436.18" width="139.74" height="142.34"/><rect class="cls-3" x="1124.72" y="2436.18" width="139.74" height="142.34"/><rect class="cls-3" x="1292.82" y="2436.18" width="139.74" height="142.34"/><rect class="cls-3" x="1459.54" y="2436.18" width="139.74" height="142.34"/></g><g><rect class="cls-3" x="450.4" y="2615.16" width="139.74" height="142.34"/><rect class="cls-3" x="618.51" y="2615.16" width="139.74" height="142.34"/><rect class="cls-3" x="785.23" y="2615.16" width="139.74" height="142.34"/><rect class="cls-3" x="954.71" y="2615.16" width="139.74" height="142.34"/><rect class="cls-3" x="1124.55" y="2615.16" width="139.74" height="142.34"/><rect class="cls-3" x="1292.65" y="2615.16" width="139.74" height="142.34"/><rect class="cls-3" x="1459.37" y="2615.16" width="139.74" height="142.34"/></g><g><rect class="cls-3" x="454.55" y="2785.69" width="139.74" height="142.34"/><rect class="cls-3" x="622.66" y="2785.69" width="139.74" height="142.34"/><rect class="cls-46" x="789.38" y="2785.69" width="139.74" height="142.34"/><rect class="cls-3" x="958.86" y="2785.69" width="139.74" height="142.34"/><rect class="cls-3" x="1128.7" y="2785.69" width="139.74" height="142.34"/><rect class="cls-3" x="1296.8" y="2785.69" width="139.74" height="142.34"/><rect class="cls-3" x="1463.52" y="2785.69" width="139.74" height="142.34"/></g><g><rect class="cls-3" x="458.7" y="2954.1" width="139.74" height="142.34"/><rect class="cls-3" x="626.81" y="2954.1" width="139.74" height="142.34"/><rect class="cls-3" x="793.53" y="2954.1" width="139.74" height="142.34"/><rect class="cls-3" x="963.02" y="2954.1" width="139.74" height="142.34"/><rect class="cls-3" x="1132.85" y="2954.1" width="139.74" height="142.34"/><rect class="cls-3" x="1300.95" y="2954.1" width="139.74" height="142.34"/><rect class="cls-3" x="1467.67" y="2954.1" width="139.74" height="142.34"/></g><g><rect class="cls-3" x="458.7" y="3122.13" width="139.74" height="142.34"/><rect class="cls-3" x="626.81" y="3122.13" width="139.74" height="142.34"/><rect class="cls-3" x="793.53" y="3122.13" width="139.74" height="142.34"/></g></g><g><path class="cls-24" d="M525.21,2250.7h-59.44c-13.69,0-24.88,11.41-24.88,25.35v56.33h17.97v-36.61c0-13.94,11.2-25.35,24.88-25.35h59.44c2.23,0,4.39,.33,6.46,.9-2.19-11.7-12.33-20.62-24.43-20.62Z"/><path class="cls-19" d="M640.7,2250.7h-59.44c-13.69,0-24.88,11.41-24.88,25.35v56.33h17.97v-36.61c0-13.94,11.2-25.35,24.88-25.35h59.44c2.23,0,4.39,.33,6.46,.9-2.19-11.7-12.33-20.62-24.43-20.62Z"/><path class="cls-35" d="M736.68,2250.7h-59.44c-13.69,0-24.88,11.41-24.88,25.35v56.33h17.97v-36.61c0-13.94,11.2-25.35,24.88-25.35h59.44c2.23,0,4.39,.33,6.46,.9-2.19-11.7-12.33-20.62-24.43-20.62Z"/><path class="cls-57" d="M835.56,2250.7h-59.44c-13.69,0-24.88,11.41-24.88,25.35v56.33h17.97v-36.61c0-13.94,11.2-25.35,24.88-25.35h59.44c2.23,0,4.39,.33,6.46,.9-2.19-11.7-12.33-20.62-24.43-20.62Z"/><path class="cls-30" d="M926.97,2250.7h-59.44c-13.69,0-24.88,11.41-24.88,25.35v56.33h17.97v-36.61c0-13.94,11.2-25.35,24.88-25.35h59.44c2.23,0,4.39,.33,6.46,.9-2.19-11.7-12.33-20.62-24.43-20.62Z"/><path class="cls-15" d="M1025.85,2250.7h-59.44c-13.69,0-24.88,11.41-24.88,25.35v56.33h17.97v-36.61c0-13.94,11.2-25.35,24.88-25.35h59.44c2.23,0,4.39,.33,6.46,.9-2.19-11.7-12.33-20.62-24.43-20.62Z"/><path class="cls-39" d="M1121.84,2250.7h-59.44c-13.69,0-24.88,11.41-24.88,25.35v56.33h17.97v-36.61c0-13.94,11.2-25.35,24.88-25.35h59.44c2.23,0,4.39,.33,6.46,.9-2.19-11.7-12.33-20.62-24.43-20.62Z"/><path class="cls-52" d="M1229.02,2250.7h-59.44c-13.69,0-24.88,11.41-24.88,25.35v56.33h17.97v-36.61c0-13.94,11.2-25.35,24.88-25.35h59.44c2.23,0,4.39,.33,6.46,.9-2.19-11.7-12.33-20.62-24.43-20.62Z"/><path class="cls-10" d="M1321.44,2249.8h-59.44c-13.69,0-24.88,11.41-24.88,25.35v56.33h17.97v-36.61c0-13.94,11.2-25.35,24.88-25.35h59.44c2.23,0,4.39,.33,6.46,.9-2.19-11.7-12.33-20.62-24.43-20.62Z"/><path class="cls-65" d="M1417.43,2249.8h-59.44c-13.69,0-24.88,11.41-24.88,25.35v56.33h17.97v-36.61c0-13.94,11.2-25.35,24.88-25.35h59.44c2.23,0,4.39,.33,6.46,.9-2.19-11.7-12.33-20.62-24.43-20.62Z"/><path class="cls-44" d="M1607.52,2252.09h-59.44c-13.69,0-24.88,11.41-24.88,25.35v56.33h17.97v-36.61c0-13.94,11.2-25.35,24.88-25.35h59.44c2.23,0,4.39,.33,6.46,.9-2.19-11.7-12.33-20.62-24.43-20.62Z"/><path class="cls-68" d="M1524.61,2249.8h-59.44c-13.69,0-24.88,11.41-24.88,25.35v56.33h17.97v-36.61c0-13.94,11.2-25.35,24.88-25.35h59.44c2.23,0,4.39,.33,6.46,.9-2.19-11.7-12.33-20.62-24.43-20.62Z"/></g></g><g><path class="cls-67" d="M2075.65,2713.01c-.62-.24-332.57-592.39-377.43-648.12-7.55-9.37-19.23-14.15-31.04-12.71l-92.65,11.25-108.85,239.86,181.34-107.57c-17.94,126.41,215.01,314.27,294.9,382.81,8.11,6.96,8.77,19.42,1.45,27.22l-31.9,34.01c52.36,54.07,112.79,88.78,180.99,104.84l-16.81-31.59Z"/><path class="cls-25" d="M1929.93,2621.41s-20.36,6.7-27.25,25.17c-3.3,8.84,.26,18.84,7.8,24.35,33.52,24.46,144.09,103.44,195.11,118.9,4.18,1.27,8.16-2.59,7.22-6.93-2.62-12.07-11.09-36.18-38.37-71.48l2.45,5.04c3.1,6.38-3.73,13.03-9.81,9.53-34.13-19.62-103.64-62.57-137.14-104.58Z"/><path class="cls-34" d="M1946.35,2858.34c-.56-.36-50.36-122.59-50.92-122.95-45.66-283.2-157.08-525.74-189.93-589.55-5.53-10.73-16.02-17.82-27.88-18.85l-92.97-8.09-154.25,212.46,198.96-67.97c-42.69,120.09,148.12,352.09,212.74,435.68,6.56,8.48,4.73,20.82-3.99,26.96l-37.99,26.73c40.54,63.74,92.82,110.2,156.41,139.98l-10.19-34.41Z"/><path class="cls-28" d="M1821.84,2738.59s-21.27,2.36-31.69,19.03c-4.98,7.97-3.49,18.51,2.8,25.45,27.97,30.87,120.55,131,167.45,156.66,3.84,2.1,8.51-.85,8.45-5.29-.17-12.36-3.67-37.72-23.38-77.91l1.4,5.44c1.77,6.89-6.24,11.99-11.5,7.31-29.52-26.25-89.06-82.64-113.53-130.69Z"/><path class="cls-2" d="M1149.47,2074.15s-84.1,127.42-91.01,185.55c-6.9,58.12,23.26,78.23,111.29,85.64,261.96,22.06,391.09-57.91,391.09-57.91,17.92-116.38,30.67-145.99,180.33-209.27,0,0-189.3,15.31-227.39,.25-38.1-15.06-364.31-4.25-364.31-4.25Z"/><g><path class="cls-16" d="M1484.85,1360.25s-58.58-70.6-120.85,16.02c-11.28,15.69-54.6,2.75-70.48,35.58-8.2,16.95-25.91,26.59-44.16,23.16-45.44-8.54-119.72-9.26-156.4,63.28-27.99,55.37-6.38,87.77,21.6,106.25,20.55,13.57,27.89,41.12,15.46,62.61-11.92,20.62-14.16,48.54,16.62,82.14,68.98,75.3,205.52-47.79,205.52-47.79l108.41-260.95,24.28-80.31Z"/><path class="cls-22" d="M1376.92,2057.28s97.94-94.99,146.15-157.91c26.06-34.01,34.24-78.78,22.19-120.15-22.01-75.54-61.13-153.77-64.69-165.94-5.47-18.66-115.28-17.89-115.28-17.89,0,0-216.1,142.86-301,384.85l95.35,30.24s56.42-96.42,112.17-157.72c0,0-96.47,129.81-99.86,182.95l204.97,21.58Z"/><path class="cls-43" d="M1563.53,2094.77l-73.59-81.56-84.99,23.31s-99.09,15.64-155.8,0l-56.71-15.64-128.15-40.64-20.13,57.94c-5.11,14.71,.02,31.04,12.51,40.08,11.09,8.03,24.08,16.84,32.37,20.54,16.88,7.52,388.77,2.38,388.77,2.38l85.72-6.41Z"/><path class="cls-45" d="M1440.76,1460.9l-73.81,139.8c4.87,30.52,80.33,31.38,91.99,13.16,1.19-1.85,1.86-4,2.32-6.17l44.15-93.41c1.9-9.11-22.62-39.8-30.69-44.18l-29.34-15.91c-11.3-6.12,35.84-6.61-4.62,6.7Z"/><g><path class="cls-14" d="M1590.14,1428.09s8.33,47.23-28.11,107.29c-36.45,60.05-72.74,57.34-91.18,35.93-18.44-21.42-40.52-57.09-30.48-116.98,10.05-59.9,137.18-86.46,149.77-26.23Z"/><path class="cls-66" d="M1484.49,1460.83s59.01-78.96,104.32-10.13l-.76,23.78s58.92-2.81,52.53-58.12c-6.39-55.32-54.49-93.1-121.18-74.2-66.68,18.9-105.65,40.42-113.18,87.58-7.53,47.16,30.27,39.46,30.27,39.46,0,0,14.44-32.54,31.88-34.76,17.44-2.22,11.14,23.52,11.14,23.52l4.98,2.88Z"/><path class="cls-12" d="M1470.95,1458.72s30.57-40.41,2.74-48.79c-27.83-8.39-26.79,39.59-24.97,57.44l22.23-8.65Z"/></g></g><g><path class="cls-33" d="M1319.93,2127.05c.26,.01,.52,.02,.78,.02l338.49-.38c8.37,0,15.14-6.92,15.14-15.45,0-8.53-6.82-15.57-15.17-15.42l-338.49,.38c-8.37,0-15.14,6.92-15.13,15.45,0,8.26,6.38,15,14.39,15.4Z"/><path class="cls-23" d="M1963.49,1814h-281.9c-20.8,0-39.72,12.22-48.59,31.38l-130.32,281.48h350.32c13.4,0,25.44-8.34,30.37-21.04l101.06-260.47c5.84-15.05-5.05-31.36-20.94-31.36Z"/><path class="cls-32" d="M1764.89,1958.33c-6.11,19.33-1.6,38.11,10.08,41.94,11.68,3.83,26.09-8.74,32.2-28.07,6.11-19.33,1.6-38.11-10.08-41.93-11.68-3.83-26.09,8.74-32.2,28.07Z"/></g></g></g><image width="1200" height="1200" transform="translate(943.92 124.69) scale(.78 .72)" xlink:href="../../../logo_transparent.png"/></g></svg>